<svg width="131" height="27" viewBox="0 0 131 27" fill="none" xmlns="http://www.w3.org/2000/svg">
<path d="M13.488 0.283691L16.4186 9.30316H25.9023L18.2299 14.8775L21.1605 23.897L13.488 18.3226L5.81562 23.897L8.74622 14.8775L1.0738 9.30316H10.5574L13.488 0.283691Z" fill="#FEF4E6"/>
<path d="M39.5944 0.283691L42.525 9.30316H52.0087L44.3362 14.8775L47.2668 23.897L39.5944 18.3226L31.922 23.897L34.8526 14.8775L27.1802 9.30316H36.6638L39.5944 0.283691Z" fill="#FEF4E6"/>
<path d="M65.7007 0.283691L68.6313 9.30316H78.1149L70.4425 14.8775L73.3731 23.897L65.7007 18.3226L58.0283 23.897L60.9589 14.8775L53.2864 9.30316H62.7701L65.7007 0.283691Z" fill="#FEF4E6"/>
<path d="M91.8069 0.283691L94.7375 9.30316H104.221L96.5487 14.8775L99.4793 23.897L91.8069 18.3226L84.1345 23.897L87.0651 14.8775L79.3926 9.30316H88.8763L91.8069 0.283691Z" fill="#FEF4E6"/>
<path d="M117.913 0.283691L120.844 9.30316H130.327L122.655 14.8775L125.586 23.897L117.913 18.3226L110.241 23.897L113.171 14.8775L105.499 9.30316H114.982L117.913 0.283691Z" fill="#FEF4E6"/>
</svg>
