<svg width="131" height="27" viewBox="0 0 131 27" fill="none" xmlns="http://www.w3.org/2000/svg">
<path d="M13.1112 0.283447L16.0418 9.30292H25.5254L17.853 14.8773L20.7836 23.8967L13.1112 18.3224L5.43879 23.8967L8.36939 14.8773L0.69697 9.30292H10.1806L13.1112 0.283447Z" fill="#FEF4E6"/>
<path d="M39.2173 0.283447L42.1479 9.30292H51.6315L43.9591 14.8773L46.8897 23.8967L39.2173 18.3224L31.5449 23.8967L34.4755 14.8773L26.803 9.30292H36.2867L39.2173 0.283447Z" fill="#FEF4E6"/>
<path d="M65.3235 0.283447L68.2541 9.30292H77.7377L70.0653 14.8773L72.9959 23.8967L65.3235 18.3224L57.6511 23.8967L60.5817 14.8773L52.9093 9.30292H62.3929L65.3235 0.283447Z" fill="#FEF4E6"/>
<path d="M91.4297 0.283447L94.3603 9.30292H103.844L96.1715 14.8773L99.1021 23.8967L91.4297 18.3224L83.7573 23.8967L86.6879 14.8773L79.0155 9.30292H88.4991L91.4297 0.283447Z" fill="#FEF4E6"/>
<path d="M117.536 0.283447L120.466 9.30292H129.95L122.278 14.8773L125.208 23.8967L117.536 18.3224L109.863 23.8967L112.794 14.8773L105.122 9.30292H114.605L117.536 0.283447Z" fill="#FEF4E6"/>
</svg>
