<svg width="132" height="27" viewBox="0 0 132 27" fill="none" xmlns="http://www.w3.org/2000/svg">
<path d="M13.7352 0.283569L16.6658 9.30304H26.1495L18.477 14.8774L21.4076 23.8969L13.7352 18.3225L6.06281 23.8969L8.99341 14.8774L1.32099 9.30304H10.8046L13.7352 0.283569Z" fill="#FEF4E6"/>
<path d="M39.8414 0.283569L42.772 9.30304H52.2557L44.5832 14.8774L47.5139 23.8969L39.8414 18.3225L32.169 23.8969L35.0996 14.8774L27.4272 9.30304H36.9108L39.8414 0.283569Z" fill="#FEF4E6"/>
<path d="M65.9476 0.283569L68.8782 9.30304H78.3619L70.6894 14.8774L73.6201 23.8969L65.9476 18.3225L58.2752 23.8969L61.2058 14.8774L53.5334 9.30304H63.017L65.9476 0.283569Z" fill="#FEF4E6"/>
<path d="M92.0538 0.283569L94.9844 9.30304H104.468L96.7957 14.8774L99.7263 23.8969L92.0538 18.3225L84.3814 23.8969L87.312 14.8774L79.6396 9.30304H89.1232L92.0538 0.283569Z" fill="#FEF4E6"/>
<path d="M118.16 0.283569L121.091 9.30304H130.574L122.902 14.8774L125.832 23.8969L118.16 18.3225L110.488 23.8969L113.418 14.8774L105.746 9.30304H115.229L118.16 0.283569Z" fill="#EDBFC3"/>
<path d="M110.749 23.8969L118.421 18.3225V0.283569L115.491 9.30304L106.007 9.30304L113.68 14.8774L110.749 23.8969Z" fill="#FEF4E6"/>
</svg>
